<?xml version="1.0" encoding="UTF-8"?>
<svg xmlns="http://www.w3.org/2000/svg" width="1956" height="653" viewBox="0 0 1956 653" role="img" aria-label="CopyPro web logo green">
  <title>CopyPro web logo green</title>
  <g fill-rule="evenodd" clip-rule="evenodd">
    <path d="M 301 36 L 270 40 L 245 46 L 213 57 L 188 69 L 160 86 L 144 98 L 105 136 L 89 157 L 71 186 L 61 207 L 49 240 L 39 287 L 37 315 L 38 344 L 42 374 L 49 403 L 61 436 L 79 471 L 81 470 L 100 419 L 100 414 L 87 377 L 81 338 L 83 288 L 88 262 L 96 236 L 113 200 L 138 165 L 175 130 L 190 119 L 223 101 L 251 90 L 286 82 L 314 79 L 358 81 L 390 88 L 421 100 L 453 118 L 476 135 L 506 165 L 532 202 L 548 237 L 560 284 L 563 331 L 559 366 L 547 409 L 526 451 L 503 482 L 473 511 L 440 534 L 407 550 L 374 560 L 345 565 L 316 566 L 274 561 L 201 579 L 201 581 L 233 594 L 267 603 L 304 608 L 347 608 L 370 605 L 401 598 L 427 589 L 449 579 L 475 564 L 496 549 L 519 529 L 537 510 L 568 466 L 583 436 L 594 406 L 601 379 L 605 354 L 607 326 L 606 298 L 601 263 L 592 230 L 581 202 L 570 180 L 543 140 L 508 104 L 489 89 L 459 70 L 432 57 L 407 48 L 385 42 L 355 37 Z" fill="#22c55e"/>
    <path d="M 446 134 L 444 134 L 364 267 L 356 281 L 356 284 L 457 142 Z M 410 115 L 379 104 L 347 98 L 308 97 L 292 100 L 215 243 L 215 248 L 218 255 L 232 268 L 232 272 L 169 378 L 168 376 L 214 285 L 218 273 L 179 337 L 148 383 L 133 402 L 119 440 L 86 518 L 36 617 L 118 591 L 218 564 L 324 540 L 431 520 L 456 504 L 458 501 L 390 510 L 305 525 L 204 547 L 128 567 L 104 575 L 101 574 L 187 527 L 259 496 L 275 443 L 294 395 L 320 343 L 352 289 L 328 303 L 312 309 L 304 309 L 299 305 L 300 296 L 380 168 Z M 68 571 L 69 573 L 67 575 L 66 573 Z M 160 438 L 164 444 L 164 454 L 156 471 L 147 480 L 140 483 L 135 483 L 69 572 L 68 570 L 128 478 L 129 466 L 136 452 L 149 439 L 154 437 Z" fill="#0b1b28"/>
    <path d="M 1420.6 244.04 L 1373.48 245.51 L 1332.25 345.64 L 1289.55 245.51 L 1239.48 244.04 L 1302.8 389.82 L 1305.75 403.07 L 1304.27 408.96 L 1293.97 419.27 L 1283.66 422.21 L 1268.93 419.27 L 1255.68 411.91 L 1243.9 435.47 L 1240.96 447.25 L 1265.99 459.03 L 1298.38 460.5 L 1321.95 451.66 L 1333.73 441.36 L 1349.92 413.38 Z M 1796.1 248.46 L 1768.12 267.6 L 1751.92 294.1 L 1747.51 311.77 L 1747.51 338.28 L 1754.87 360.37 L 1774.01 383.93 L 1787.26 392.76 L 1809.35 401.6 L 1841.75 404.54 L 1860.89 401.6 L 1881.51 392.76 L 1903.59 373.62 L 1918.32 342.7 L 1919.79 310.3 L 1908.01 277.91 L 1887.4 257.29 L 1862.36 245.51 L 1849.11 242.57 L 1818.19 242.57 Z M 1827.02 280.85 L 1838.8 280.85 L 1855 286.74 L 1865.31 297.05 L 1871.2 311.77 L 1871.2 335.34 L 1868.25 344.17 L 1856.47 357.42 L 1837.33 364.79 L 1824.08 363.31 L 1809.35 355.95 L 1800.52 345.64 L 1796.1 333.86 L 1796.1 311.77 L 1800.52 299.99 L 1812.3 286.74 Z M 1734.25 242.57 L 1716.58 242.57 L 1701.86 246.98 L 1679.77 264.65 L 1678.3 244.04 L 1634.12 245.51 L 1634.12 401.6 L 1681.24 401.6 L 1682.71 311.77 L 1687.13 301.47 L 1701.86 288.21 L 1719.53 283.8 L 1734.25 285.27 Z M 1210.03 258.76 L 1189.42 246.98 L 1173.22 242.57 L 1136.41 244.04 L 1123.15 249.93 L 1111.37 260.24 L 1108.43 244.04 L 1062.78 245.51 L 1062.78 457.55 L 1111.37 457.55 L 1112.85 386.87 L 1129.04 398.65 L 1140.82 403.07 L 1177.64 403.07 L 1208.56 388.35 L 1223.29 372.15 L 1236.54 339.75 L 1236.54 308.83 L 1226.23 277.91 Z M 1143.77 280.85 L 1157.02 280.85 L 1173.22 288.21 L 1183.53 299.99 L 1187.95 311.77 L 1187.95 333.86 L 1183.53 345.64 L 1168.8 360.37 L 1154.08 364.79 L 1140.82 363.31 L 1127.57 357.42 L 1117.26 347.12 L 1111.37 332.39 L 1111.37 311.77 L 1115.79 299.99 L 1126.1 288.21 Z M 902.27 251.4 L 880.19 267.6 L 868.41 283.8 L 861.04 302.94 L 861.04 341.23 L 875.77 372.15 L 899.33 392.76 L 915.53 400.13 L 939.09 404.54 L 974.43 401.6 L 987.68 397.18 L 1006.82 385.4 L 1023.02 367.73 L 1031.86 350.06 L 1034.8 336.81 L 1033.33 301.47 L 1017.13 270.54 L 997.99 254.35 L 964.12 242.57 L 930.25 242.57 Z M 933.2 282.32 L 953.81 280.85 L 971.48 288.21 L 983.26 302.94 L 987.68 322.08 L 983.26 342.7 L 974.43 354.48 L 962.65 361.84 L 944.98 364.79 L 928.78 360.37 L 915.53 348.59 L 909.64 336.81 L 908.16 314.72 L 915.53 295.58 Z M 1557.55 201.34 L 1535.46 196.92 L 1441.22 196.92 L 1441.22 401.6 L 1488.34 401.6 L 1491.29 342.7 L 1551.66 341.23 L 1578.16 329.45 L 1595.84 310.3 L 1606.14 282.32 L 1606.14 254.35 L 1603.2 244.04 L 1594.36 227.84 L 1584.05 216.06 Z M 1491.29 236.68 L 1532.52 238.15 L 1550.19 251.4 L 1554.6 260.24 L 1554.6 277.91 L 1548.71 291.16 L 1542.82 297.05 L 1522.21 304.41 L 1491.29 304.41 Z M 756.49 192.5 L 713.79 201.34 L 694.65 211.64 L 672.56 232.26 L 662.25 246.98 L 653.42 267.6 L 649 305.88 L 651.95 325.03 L 660.78 348.59 L 671.09 364.79 L 688.76 382.46 L 702.01 391.29 L 727.04 401.6 L 766.8 406.02 L 796.25 401.6 L 822.76 389.82 L 844.85 370.68 L 846.32 364.79 L 813.92 336.81 L 794.78 354.48 L 774.16 361.84 L 752.08 361.84 L 727.04 353.01 L 709.37 335.34 L 702.01 320.61 L 699.07 292.63 L 703.48 274.96 L 712.32 258.76 L 725.57 245.51 L 741.77 238.15 L 756.49 235.2 L 783 238.15 L 796.25 244.04 L 816.87 260.24 L 846.32 229.31 L 827.18 211.64 L 805.09 199.86 L 781.53 193.97 Z" fill="#0b1b28"/>
  </g>
</svg>
